<?xml version="1.0" encoding="UTF-8"?>
<svg width="800" height="800" viewBox="0 0 24 24" xmlns="http://www.w3.org/2000/svg">
    <path d="M18 2H6c-1.1 0-2 .9-2 2v16c0 1.1.9 2 2 2h12c1.1 0 2-.9 2-2V4c0-1.1-.9-2-2-2zm-6 2c.55 0 1 .45 1 1s-.45 1-1 1-1-.45-1-1 .45-1 1-1zm0 4c.55 0 1 .45 1 1v10c0 .55-.45 1-1 1s-1-.45-1-1V9c0-.55.45-1 1-1zm-4-2c.55 0 1 .45 1 1s-.45 1-1 1-1-.45-1-1 .45-1 1-1zm0 4c.55 0 1 .45 1 1v6c0 .55-.45 1-1 1s-1-.45-1-1v-6c0-.55.45-1 1-1zm8-2c.55 0 1 .45 1 1s-.45 1-1 1-1-.45-1-1 .45-1 1-1zm0 4c.55 0 1 .45 1 1v6c0 .55-.45 1-1 1s-1-.45-1-1v-6c0-.55.45-1 1-1z" fill="#333"/>
</svg>