<?xml version="1.0" encoding="UTF-8"?>
<svg width="800" height="800" viewBox="0 0 24 24" xmlns="http://www.w3.org/2000/svg">
    <path d="M21.5 6c-1.5-1.5-3.8-2.3-6.1-2.3h-1.6c-1.6 0-3.2.5-4.5 1.4-1.3.9-2.2 2.1-2.6 3.5L4.9 15c-.2.6-.3 1.3-.3 1.9 0 1.6.6 3.1 1.8 4.2 1.1 1.1 2.7 1.8 4.2 1.8h7.8c1.6 0 3.1-.6 4.2-1.8 1.1-1.1 1.8-2.7 1.8-4.2V9.7c0-1.4-.5-2.7-1.4-3.7zM19 17c0 .8-.3 1.6-.9 2.1-.6.6-1.3.9-2.1.9h-7.8c-.8 0-1.6-.3-2.1-.9-.6-.6-.9-1.3-.9-2.1 0-.3.1-.7.2-1l1.8-6.3c.2-.8.7-1.5 1.4-2 .7-.5 1.6-.8 2.4-.8h1.6c1.6 0 3.2.6 4.4 1.7.6.6.9 1.3.9 2.1V17z" fill="#333"/>
</svg>